<?xml version="1.0" encoding="UTF-8"?>
<svg xmlns="http://www.w3.org/2000/svg" viewBox="0 0 1294.273 626.92" width="800" height="387.63523956723"><path fill="#052759" stroke-width="0" d="M266.228 359.369h-86.96v-44.143h79.897c32.665 0 52.53 19.864 52.53 52.53v79.897h-45.467zm-86.298-76.367c13.904-59.15 67.758-103.734 131.764-103.734 75.042 0 135.959 60.916 135.959 135.958 0 63.786-43.922 117.418-102.852 131.765V400.2c32.665-11.036 56.502-45.908 56.502-84.974 0-51.205-39.728-91.375-89.609-91.375-39.066 0-71.952 24.94-83.65 59.151zM527.168 313.129c0-53.002 38.973-92.235 91.715-92.235 52.613 0 91.586 39.233 91.586 92.235s-38.973 92.235-91.586 92.235c-52.743 0-91.715-39.233-91.715-92.235m91.715 56.64c32.088 0 53.523-22.994 53.523-56.64s-21.435-56.64-53.523-56.64c-32.217 0-53.652 22.994-53.652 56.64s21.435 56.64 53.652 56.64m115.231-146.277h54.821l41.961 127.57 41.83-127.57h54.172v179.274h-35.205v-127.83l-41.96 127.83H811.28l-41.96-127.83v127.83h-35.206zm207.984 0h38.713l48.585 133.287 48.457-133.287h37.153l-66.643 179.274h-39.622z"/></svg>
